<svg xmlns="http://www.w3.org/2000/svg" width="1200" height="630" viewBox="0 0 1200 630">
  <defs><linearGradient id="g" x2="1" y2="1"><stop stop-color="#171027"/><stop offset="1" stop-color="#32156f"/></linearGradient><pattern id="p" width="42" height="42" patternUnits="userSpaceOnUse"><path d="M42 0H0V42" fill="none" stroke="#c4b5fd" stroke-opacity=".08"/></pattern></defs>
  <rect width="1200" height="630" fill="url(#g)"/><rect width="1200" height="630" fill="url(#p)"/>
  <text x="62" y="75" fill="#c4b5fd" font-family="monospace" font-size="16" letter-spacing="3">CASE 01 · HEALTHTECH · SAAS B2B</text>
  <text x="60" y="210" fill="#fff" font-family="Arial, sans-serif" font-size="96" font-weight="800" letter-spacing="-6">ABAplay</text>
  <text x="62" y="286" fill="#ddd6fe" font-family="Arial, sans-serif" font-size="43" font-weight="700">Da planilha à operação</text>
  <text x="62" y="338" fill="#ddd6fe" font-family="Arial, sans-serif" font-size="43" font-weight="700">clínica conectada.</text>
  <g transform="translate(62 430)" font-family="Arial, sans-serif"><rect width="180" height="62" rx="31" fill="#7c3aed"/><text x="90" y="40" text-anchor="middle" fill="#fff" font-size="22" font-weight="700">4 clínicas</text><rect x="200" width="220" height="62" rx="31" fill="none" stroke="#8b76b5"/><text x="310" y="40" text-anchor="middle" fill="#fff" font-size="22" font-weight="700">300+ pacientes</text></g>
  <g transform="translate(820 110)"><rect width="310" height="360" rx="30" fill="#fff" opacity=".08" stroke="#c4b5fd"/><circle cx="155" cy="130" r="72" fill="none" stroke="#a78bfa" stroke-width="2"/><path d="M110 240h90M110 270h90M110 300h60" stroke="#c4b5fd" stroke-width="13" stroke-linecap="round" opacity=".7"/><path d="m120 128 23 23 48-58" fill="none" stroke="#a78bfa" stroke-width="12" stroke-linecap="round" stroke-linejoin="round"/></g>
  <text x="62" y="575" fill="#9f91bc" font-family="monospace" font-size="15">PRODUCT · UX · FRONTEND · BACKEND · OPERAÇÃO</text>
</svg>
